<svg width="360" height="800" viewBox="0 0 360 800" fill="none" xmlns="http://www.w3.org/2000/svg">
<g clip-path="url(#clip0_596_1630)">
<path d="M79.862 799.915H14.9594C13.8448 786.261 9.9634 773.342 4.9477 760.73C0.666323 749.963 -5.27383 740.119 -11.5549 730.475C-5.61477 731.123 0.31883 732.266 6.25899 732.313C19.8899 732.413 33.5208 732.907 47.1714 731.892C58.0289 731.09 68.8406 729.927 79.5604 728.236C96.9416 725.489 114.283 722.401 131.527 718.879C156.337 713.807 181.133 708.68 206.192 704.991C209.359 704.523 210.388 703.187 210.382 699.798C210.264 644.347 210.296 588.895 210.31 533.443C210.31 532 210.428 530.556 210.493 529.113C211.293 528.277 210.965 527.221 210.965 526.259C210.978 494.292 210.985 462.319 210.965 430.353C210.965 429.297 211.359 428.107 210.388 427.219C210.401 417.314 210.421 407.409 210.434 397.504C211.319 396.702 210.952 395.633 210.952 394.677C210.972 284.97 210.972 175.264 210.952 65.5566C210.952 64.5207 211.457 63.311 210.355 62.4689C209.91 61.5867 209.064 61.8006 208.343 61.727C204.002 61.2726 199.649 60.9451 195.328 60.3837C173.403 57.5299 152.842 50.6795 134.097 38.5493C119.732 29.2594 107.884 17.2695 97.748 3.43502C97.5448 3.161 97.3415 2.88698 97.1448 2.61297L97.2038 2.62633C96.7252 1.93127 96.24 1.24288 95.7614 0.547815C95.7745 0.367365 95.7024 0.247065 95.545 0.173548C95.3746 -0.274235 95.2041 -0.728702 95.0337 -1.17648C98.9085 -1.17648 102.79 -1.17648 106.665 -1.17648C107.314 -0.414585 107.956 0.347315 108.606 1.10922C108.966 1.65725 109.294 2.2387 109.7 2.75332C134.136 34.0179 166.925 48.2468 205.169 51.3345C206.874 51.6753 208.585 51.7756 210.31 51.555C211.168 51.0939 211.011 50.2584 211.011 49.5032C210.985 32.6211 210.952 15.739 210.919 -1.14307C219.908 -1.14307 228.897 -1.14307 237.886 -1.14307C237.886 172.042 237.886 345.227 237.912 518.413C237.912 519.809 237.421 521.313 238.43 522.596C238.47 523.706 238.548 524.815 238.548 525.931C238.555 582.599 238.555 639.267 238.555 695.935C238.555 696.717 238.594 697.499 238.555 698.274C238.463 699.845 239.138 700.527 240.692 700.4C241.781 700.313 242.889 700.44 243.964 700.293C256.159 698.582 268.439 698.127 280.726 697.72C285.066 697.579 285.073 697.673 285.073 693.249C285.073 646.378 285.066 599.508 285.073 552.638C285.073 540.615 285.132 528.591 285.165 516.568C286.181 515.545 285.722 514.249 285.722 513.079C285.742 366.728 285.742 220.376 285.742 74.0244C285.742 48.9819 285.709 23.9462 285.689 -1.09628C294.855 -1.11633 304.021 -1.14307 313.187 -1.16312C313.22 9.6973 313.246 20.5644 313.285 31.4248C313.325 43.2811 313.371 55.144 313.417 67.0002C313.417 67.6618 313.417 68.3235 313.417 68.9851C313.377 78.5223 313.325 88.0594 313.312 97.6032C313.292 107.033 313.305 116.47 313.325 125.9C313.325 127.137 312.886 128.981 315.259 127.879C338.298 125.62 359.856 118.843 379.165 105.57C396.107 93.9207 409.2 78.6893 418.753 60.2901C419.343 59.8089 419.566 59.1673 419.54 58.4188C420.3 57.9042 419.992 57.0287 420.222 56.3403C421.736 56.1331 421.893 54.7095 422.392 53.6736C429.814 38.2619 434.416 21.9011 437.721 5.15263C438.973 -1.18985 438.75 -1.09628 445.169 -1.23663C448.211 -1.30347 448.5 -0.300968 448.001 2.49267C446.913 8.58118 445.897 14.6764 444.402 20.6847C440.507 36.3371 435.203 51.428 427.27 65.4764C424.844 69.7805 422.464 74.1113 420.064 78.4287C419.35 78.5423 418.93 78.9634 418.825 79.6985C418.53 80.0928 418.228 80.4939 417.933 80.8882C417.776 81.0419 417.599 81.1822 417.474 81.356C397.385 109.159 370.504 126.295 337.735 134.275C329.657 136.24 321.422 137.135 313.259 138.525C312.237 139.541 312.682 140.838 312.682 142.007C312.656 201.329 312.656 260.643 312.682 319.964C312.682 321.134 312.223 322.431 313.22 323.46C313.358 323.6 313.404 323.767 313.371 323.961C313.364 332.984 313.358 341.999 313.351 351.022C313.384 370.136 313.41 389.244 313.443 408.358C313.404 409.026 313.325 409.688 313.325 410.356C313.325 445.096 313.331 479.836 313.345 514.576C313.331 574.345 313.318 634.121 313.305 693.89C313.305 694.111 313.318 694.338 313.305 694.558C313.181 696.096 313.594 696.851 315.357 697.192C318.078 697.726 320.793 697.526 323.494 697.76C322.425 698.522 321.376 699.317 320.288 700.039C298.363 714.515 281.559 733.643 269.921 757.482C263.358 770.922 259.208 785.124 256.933 799.921H192.03C189.355 784.83 182.143 772.473 170.079 763.317C155.478 752.236 139.185 749.208 121.509 753.572C111.72 755.992 103.236 760.884 96.1745 768.055C87.5003 776.864 81.4552 787.243 79.921 799.921L79.862 799.915Z" fill="#1B4468"/>
<path d="M323.435 697.747C320.727 697.513 318.013 697.714 315.292 697.179C313.528 696.832 313.115 696.083 313.24 694.546C313.259 694.325 313.24 694.098 313.24 693.878C313.253 634.109 313.266 574.333 313.279 514.564C323.566 515.058 333.86 515.553 344.147 516.047C350.467 516.736 356.794 517.424 363.115 518.113C355.916 522.076 349.923 527.449 345.242 534.28C339.964 541.972 336.64 550.4 336.102 559.897C335.827 564.782 335.663 564.776 340.534 564.776C371.225 564.776 401.922 564.776 432.613 564.776C440.12 564.776 440.14 564.776 439.15 557.137C437.295 542.854 430.26 531.646 419.402 522.731C420.628 521.541 420.097 519.997 420.097 518.621C420.13 456.432 420.13 394.244 420.123 332.055C420.123 327.604 420.045 323.16 419.999 318.709C419.986 314.605 419.986 310.508 419.966 306.405C419.907 294.328 419.841 282.251 419.782 270.174C419.769 269.733 419.756 269.299 419.75 268.858C419.835 267.421 420.005 265.991 420.005 264.554C420.005 205.74 419.999 146.92 419.973 88.107C419.973 86.2223 419.828 84.3442 419.756 82.4595C419.756 81.564 419.756 80.6684 419.756 79.7729C419.848 79.3251 419.933 78.8706 420.025 78.4228C422.425 74.1054 424.805 69.7746 427.23 65.4705C435.164 51.4221 440.468 36.3312 444.363 20.6788C445.857 14.6705 446.874 8.57529 447.962 2.48678C448.46 -0.306858 448.172 -1.30936 445.13 -1.24252C438.704 -1.10217 438.934 -1.19574 437.682 5.14674C434.377 21.9019 429.774 38.256 422.353 53.6677C421.854 54.697 421.703 56.1205 420.182 56.3344C420.11 49.4439 420.018 42.5467 419.966 35.6562C419.887 24.5351 419.828 13.414 419.769 2.29296C419.769 1.61126 419.769 0.922875 419.769 0.241175C419.887 -0.447208 419.999 -1.13559 420.117 -1.82397C438.908 -1.82397 457.705 -1.82397 476.496 -1.82397C476.529 -0.935091 476.588 -0.0462078 476.588 0.842676C476.588 91.6291 476.588 182.415 476.588 273.209C476.548 274.432 476.483 275.655 476.483 276.878C476.483 362.565 476.483 448.252 476.489 533.932C476.489 535.376 476.463 536.826 476.483 538.27C476.496 539.526 475.991 540.234 474.778 540.749C468.254 543.543 463.285 548.268 459.403 554.203C456.072 559.295 454.204 564.896 454.184 571.071C454.184 572.455 454.394 573.511 456.105 573.444C459.921 573.29 463.652 574.313 467.494 574.126C474.018 573.812 480.522 573.23 487.071 573.424C497.962 573.745 508.872 572.956 519.755 574.065C523.447 574.44 525.256 574.132 523.834 569.28C523.407 567.823 523.539 566.206 523.329 564.675C523.119 563.112 524.299 563.579 525.033 563.365C533.308 565.157 541.438 567.629 549.856 568.726C564.562 572.475 579.505 574.881 594.532 576.786C594.532 585.447 594.532 594.115 594.532 602.777C592.342 602.79 590.152 602.797 587.969 602.811C582.344 596.709 576.403 590.948 570.188 585.481L570.221 585.514L569.44 584.946C568.772 584.933 567.873 584.284 567.683 585.608C566.09 591.469 566.667 597.584 565.697 603.519C562.11 604.181 558.544 605.016 554.931 605.464C547.43 606.386 540.1 608.017 532.868 610.202C532.147 610.202 531.38 610.082 530.901 610.857C530.029 610.877 529.157 610.904 528.285 610.924C525.696 612.107 522.64 612.134 520.398 614.192C520.182 614.192 519.972 614.206 519.755 614.219C519.028 614.219 518.261 614.099 517.795 614.887C517.356 614.907 516.916 614.927 516.477 614.947C511.77 616.779 506.918 618.316 502.394 620.528C496.972 623.175 490.92 624.612 486.317 628.896C483.937 629.911 481.19 630.306 479.735 632.892C479.531 632.892 479.322 632.892 479.118 632.919C478.292 632.939 477.827 633.36 477.781 634.216C476.358 634.329 474.922 634.429 474.476 636.221C473.84 636.461 473.198 636.702 472.562 636.942C471.71 636.942 471.29 637.403 471.205 638.232C471.002 638.226 470.798 638.232 470.595 638.252C461.141 644.214 451.994 650.583 444.369 658.957C442.841 659.178 441.969 660.067 441.727 661.617C439.694 662.219 438.383 663.562 437.773 665.627C436.154 665.848 435.334 667.077 434.534 668.321C432.535 670.098 430.214 671.582 429.243 674.309C428.739 674.59 428.614 675.071 428.601 675.605C428.293 675.692 427.853 675.666 427.689 675.873C425.041 679.168 421.749 679.829 417.901 678.506C417.632 678.412 417.186 678.854 416.825 679.041L414.242 678.84C413.488 677.951 412.721 677.122 411.593 678.352C410.938 678.319 410.282 678.292 409.626 678.259C406.919 676.113 404.014 676.882 401.11 677.644C400.677 677.644 400.244 677.644 399.805 677.644C397.497 676.828 395.314 675.786 393.406 674.202C392.783 673.681 392.252 673.754 391.832 674.469C390.613 673.654 390.914 671.495 389.052 671.161C388.082 672.812 390.029 673.681 389.957 675.037C388.167 677.55 385.125 677.136 382.738 678.252C382.306 678.265 381.873 678.285 381.44 678.299C380.968 677.671 380.529 677.711 380.129 678.372C367.934 680.016 356.04 682.87 344.54 687.415C337.23 690.302 330.398 694.172 323.435 697.767V697.747Z" fill="#37897F"/>
<path d="M-188.927 -1.84424C-184.993 -1.84424 -181.059 -1.84424 -177.126 -1.84424C-176.306 -0.915255 -175.48 0.00704539 -174.66 0.936029H-174.654C-174.372 1.28356 -174.09 1.6311 -173.808 1.98531L-173.677 2.11898C-173.369 2.43978 -173.067 2.76726 -172.759 3.08806L-172.792 3.05465C-172.484 3.38213 -172.175 3.70961 -171.861 4.03041C-171.618 4.29775 -171.369 4.56508 -171.126 4.83241C-170.831 5.15989 -170.543 5.4807 -170.248 5.80818L-170.176 5.84828C-169.946 6.0421 -169.71 6.22923 -169.481 6.42305L-169.33 6.23591L-169.507 6.403C-169.284 6.63023 -169.055 6.85746 -168.832 7.0847L-168.674 6.86415L-168.851 7.07133C-168.609 7.29188 -168.366 7.51243 -168.124 7.73298L-168.169 7.6862C-167.927 7.91343 -167.684 8.14735 -167.448 8.37458L-167.501 8.3278C-167.245 8.55503 -166.996 8.77558 -166.74 9.00281L-166.799 8.94266C-166.543 9.17658 -166.288 9.41718 -166.032 9.6511C-153.489 20.9593 -138.862 27.8565 -122.477 31.0444C-121.782 31.6125 -120.95 31.6192 -120.117 31.6259H-120.163C-117.567 32.312 -116.264 31.3296 -116.255 28.6785C-116.216 18.7271 -116.17 8.7689 -116.124 -1.18259C-106.781 -1.18259 -97.4316 -1.18259 -88.0886 -1.18927C-88.0427 5.34703 -87.9772 11.89 -87.9575 18.4263C-87.9116 34.1656 -87.8854 49.9048 -87.8526 65.6441C-87.8526 66.5263 -87.8526 67.4152 -87.8526 68.2973C-87.8526 68.9724 -87.8526 69.6474 -87.8526 70.3157C-87.8526 82.339 -87.8526 94.3557 -87.8526 106.379C-87.8854 113.143 -87.9247 119.906 -87.9509 126.67C-87.9509 127.525 -88.1476 128.601 -86.6724 128.247C-79.0145 128.026 -71.5138 126.629 -64.0723 124.959C-51.038 122.031 -38.4758 117.774 -26.9823 110.656C-21.8289 108.157 -17.2066 104.802 -12.7219 101.266C-0.68425 91.7959 9.38646 80.5212 17.0772 67.101L17.0182 67.1278C17.2215 66.8738 17.4313 66.6265 17.6345 66.3725C28.5183 48.6283 35.219 29.2734 39.0217 8.79563C39.3692 6.83741 39.7102 4.8792 40.0577 2.92098L40.0314 2.98781C40.097 2.73385 40.1691 2.47988 40.2347 2.22591C40.333 1.3504 40.4314 0.468195 40.5297 -0.407321C40.7395 -0.888522 40.9494 -1.36304 41.1657 -1.84424C44.2276 -1.84424 47.2829 -1.84424 50.3448 -1.84424C50.489 -1.16254 50.6333 -0.474155 50.7775 0.207545L50.8824 0.421412C50.1022 1.80486 50.1743 3.34871 50.0825 4.85915L50.1743 5.08638C49.5711 5.8015 49.617 6.65696 49.6497 7.51243C45.9781 26.2926 40.3724 44.4111 31.9735 61.5806C27.5545 69.4736 22.9649 77.2463 17.5165 84.471C10.3634 93.9613 1.8662 102.055 -7.11617 109.674C-9.45683 111.264 -11.791 112.875 -14.1447 114.452C-36.5482 129.463 -61.4628 136.481 -87.9378 138.553C-89.1114 139.495 -88.6 140.825 -88.6 141.974C-88.6263 173.018 -88.6263 204.063 -88.6 235.107C-88.6 236.283 -89.0393 237.573 -88.0755 238.615C-87.9247 238.749 -87.8592 238.916 -87.8723 239.117C-87.9116 242.565 -87.9772 246.014 -87.9837 249.462C-88.0231 278.167 -88.0493 306.872 -88.0821 335.577C-89.0524 335.724 -89.4524 336.319 -89.0852 337.221C-88.3443 339.053 -88.6525 340.957 -88.6525 342.829C-88.6328 397.659 -88.6394 452.489 -88.6197 507.319C-88.6197 508.609 -89.0393 509.999 -88.1673 511.195C-88.0559 514.764 -87.951 518.34 -87.8395 521.909C-87.8854 523.459 -87.9772 525.016 -87.9772 526.567C-87.9903 576.03 -87.9903 625.5 -87.9903 674.964C-97.3136 672.391 -106.775 670.499 -116.327 669.096C-116.281 667.759 -116.196 666.429 -116.196 665.092C-116.196 610.777 -116.196 556.461 -116.183 502.146C-116.183 500.255 -116.098 498.37 -116.059 496.478C-115.108 495.429 -115.547 494.139 -115.547 492.97C-115.521 439.911 -115.521 386.845 -115.547 333.786C-115.547 332.61 -115.134 331.32 -116.091 330.284C-116.124 328.84 -116.19 327.397 -116.196 325.953C-116.216 293.278 -116.229 260.604 -116.249 227.929L-116.183 227.969C-115.088 226.993 -115.541 225.676 -115.541 224.514C-115.521 165.119 -115.521 105.724 -115.541 46.3359C-115.541 45.173 -115.095 43.8564 -116.236 42.9074C-117.278 42.6333 -118.314 42.2925 -119.37 42.0987C-135.321 39.1981 -150.211 33.5841 -163.672 24.2408C-173.218 17.6109 -181.204 9.34366 -188.331 0.154078C-188.534 -0.514255 -188.737 -1.1759 -188.94 -1.84424H-188.927Z" fill="#1B4468"/>
<path d="M-116.314 669.095C-106.755 670.499 -97.3005 672.39 -87.9772 674.963C-85.9709 676.407 -83.5122 676.587 -81.283 677.429C-59.4696 685.69 -40.4034 698.194 -24.2942 715.397C-19.7833 720.216 -15.9937 725.623 -11.5549 730.468C-5.27383 740.112 0.659775 749.957 4.94771 760.724C9.96341 773.335 13.8514 786.261 14.9594 799.908H-165.98C-161.81 795.544 -157.627 791.186 -153.463 786.815C-152.572 785.88 -151.385 785.104 -151.562 783.521C-150.434 783.581 -149.503 783.407 -149.687 781.89C-145.255 779.992 -143.307 775.48 -140.18 772.239C-138.37 770.361 -135.964 768.71 -135.125 765.923C-134.286 765.522 -133.42 765.135 -134.227 763.952C-131.348 763.544 -130.266 761.004 -128.89 758.999C-126.26 755.177 -121.861 752.677 -120.76 747.725C-120.097 747.29 -118.983 747.257 -119.265 745.98C-118.058 745.586 -117.239 744.664 -116.518 743.688C-110.663 735.761 -104.775 727.868 -99.0511 719.848C-97.825 718.131 -95.7532 716.761 -95.9958 714.174C-95.1959 713.125 -93.2158 713.252 -93.2158 711.1C-94.9992 711.1 -96.199 712.45 -97.7201 712.831C-98.3561 711.26 -99.733 711.588 -100.808 711.835C-105.286 712.878 -109.869 712.41 -114.393 712.951C-121.579 713.813 -128.85 713.94 -136.01 715.177C-136.698 715.103 -137.328 715.237 -137.846 715.732C-140.757 715.578 -143.655 715.751 -146.5 716.413C-150.546 717.349 -154.788 717.028 -158.761 718.398C-159.331 718.458 -159.902 718.518 -160.472 718.585C-167.717 719.387 -174.91 720.51 -181.938 722.522C-182.81 722.254 -183.485 722.535 -183.977 723.297C-191.399 723.665 -198.467 725.783 -205.528 727.895C-206.112 728.082 -206.695 728.269 -207.279 728.45C-212.045 729.078 -216.464 730.969 -220.975 732.487C-223.893 733.469 -227.158 733.696 -229.623 735.915C-230.351 735.768 -230.954 736.089 -231.538 736.457C-231.682 736.717 -231.82 736.978 -231.964 737.238L-231.931 737.385C-233.072 736.891 -234.016 737.519 -235.052 737.853C-240.54 739.618 -245.411 742.759 -250.65 745.071C-248.84 741.823 -247.037 738.568 -245.228 735.32C-244.572 734.498 -243.648 733.823 -243.844 732.56L-243.956 732.473C-243.366 732.66 -243.254 732.206 -243.103 731.805C-238.14 724.159 -233.892 716.099 -229.997 707.845L-228.718 705.713C-228.384 705.473 -228.056 705.232 -227.722 704.991C-226.738 705.092 -226.142 704.437 -225.466 703.855C-213.481 693.596 -200.276 685.416 -185.701 679.555C-170.254 673.339 -154.204 669.984 -137.675 668.814C-130.555 668.901 -123.428 668.988 -116.308 669.082L-116.314 669.095Z" fill="#98D870"/>
<path d="M381.434 678.272C381.866 678.258 382.299 678.238 382.732 678.225C383.597 678.245 384.489 678.412 385.328 678.265C388.469 677.73 389.577 678.953 389.354 682.201C389.046 686.606 389.111 691.104 390.101 695.381C391.045 699.464 389.577 703.869 391.885 707.698L392.049 709.423C391.334 714.943 393.609 720.209 393.412 725.69C393.386 726.365 393.97 726.839 394.566 727.167C394.638 727.902 394.71 728.63 394.776 729.366C394.855 735.481 395.917 741.422 397.858 747.203C397.91 747.772 397.969 748.34 398.022 748.908C398.736 755.417 400.179 761.753 402.447 767.882C402.65 768.476 402.854 769.078 403.057 769.673C403.136 773.489 404.421 777.018 405.738 780.5C406.768 783.213 406.866 786.328 408.971 788.6C409.194 789.208 409.417 789.816 409.64 790.425C409.666 793.967 412.328 796.567 412.905 799.915H256.88C259.155 785.118 263.306 770.916 269.869 757.476C281.506 733.636 298.317 714.509 320.236 700.033C321.33 699.311 322.373 698.515 323.442 697.753C330.411 694.158 337.236 690.288 344.547 687.401C356.04 682.856 367.934 679.996 380.135 678.358C380.575 678.332 381.007 678.305 381.447 678.285L381.434 678.272Z" fill="#98D870"/>
<path d="M79.8621 799.915C81.3897 787.237 87.4414 776.857 96.1156 768.049C103.177 760.884 111.661 755.985 121.45 753.566C139.126 749.202 155.419 752.229 170.02 763.31C182.077 772.466 189.296 784.824 191.971 799.915H79.8686H79.8621Z" fill="#4AB96F"/>
<path d="M-87.846 65.6441C-87.8788 49.9048 -87.905 34.1656 -87.9509 18.4263C-87.9706 11.89 -88.0361 5.34703 -88.082 -1.18927C-88.0296 -1.40314 -87.9902 -1.62369 -87.9706 -1.84424C-44.9207 -1.84424 -1.87096 -1.84424 41.1789 -1.84424C40.9691 -1.36304 40.7593 -0.888522 40.5429 -0.414005C-1.14972 -0.447422 -42.8424 -0.460789 -84.5415 -0.540989C-86.6724 -0.540989 -87.3674 0.127345 -87.3543 2.31279C-87.269 22.1155 -87.2821 41.9115 -87.2625 61.7142C-87.5182 63.0108 -86.9084 64.4477 -87.846 65.6374V65.6441Z" fill="#CFDFDA"/>
<path d="M420.104 -1.84424C419.986 -1.15586 419.874 -0.467472 419.756 0.220912C419.441 0.194178 419.127 0.174128 418.812 0.154078C418.058 -0.768222 417.009 -0.487522 416.058 -0.487522C383.191 -0.494205 350.316 -0.467472 317.449 -0.540988C314.748 -0.540988 313.797 0.307795 313.843 3.09475C313.981 11.215 313.882 19.3419 313.895 27.4689C313.895 28.4446 313.653 29.5006 314.538 30.2759C314.033 31.8665 313.849 33.4839 313.856 35.1681C313.902 44.5982 313.889 54.0217 313.856 63.4519C313.856 64.6349 314.23 65.9047 313.371 66.9807C313.325 55.1245 313.279 43.2616 313.24 31.4053C313.2 20.5449 313.174 9.67783 313.141 -1.18259C313.174 -1.40314 313.207 -1.62369 313.24 -1.84424C348.861 -1.84424 384.476 -1.84424 420.097 -1.84424H420.104Z" fill="#CFDFDA"/>
<path d="M108.573 1.09643C107.924 0.334528 107.275 -0.427372 106.632 -1.18927C106.671 -1.40982 106.704 -1.62369 106.744 -1.84424C141.27 -1.84424 175.796 -1.84424 210.323 -1.84424C210.342 -1.61032 210.355 -1.36972 210.375 -1.1358C210.342 16.4213 210.31 33.9784 210.277 51.5422C208.552 51.7628 206.841 51.6625 205.137 51.3217C206.92 50.4929 209.798 51.7294 209.746 47.7595C209.542 32.7353 209.641 17.7045 209.693 2.6737C209.7 0.428095 208.979 -0.527622 206.664 -0.520938C174.878 -0.474155 143.086 -0.494205 111.3 -0.494205C110.081 -0.494205 108.809 -0.621188 108.566 1.10311L108.573 1.09643Z" fill="#CFDFDA"/>
<path d="M238.509 -1.84415C253.805 -1.84415 269.101 -1.84415 284.398 -1.84415C284.49 -1.59018 284.581 -1.3429 284.673 -1.08893C284.562 -0.935213 284.529 -0.761446 284.581 -0.574313C284.529 -0.30698 284.483 -0.0396464 284.431 0.221004C283.473 -0.42728 282.411 -0.50748 281.297 -0.50748C267.102 -0.474063 252.907 -0.460697 238.712 -0.44733C238.627 -0.68793 238.535 -0.92853 238.45 -1.17581C238.47 -1.40305 238.489 -1.6236 238.509 -1.85083V-1.84415Z" fill="#CFDFDA"/>
<path d="M50.7907 0.207545C50.6464 -0.474155 50.5022 -1.16254 50.3579 -1.84424C64.9985 -1.84424 79.6391 -1.84424 94.2797 -1.84424C94.5157 -1.62369 94.7584 -1.40982 94.9944 -1.18927C95.1649 -0.741488 95.3353 -0.287021 95.5058 0.160762C93.7814 0.080562 92.162 -0.554355 90.3852 -0.540988C78.5573 -0.460788 66.7294 -0.494205 54.9015 -0.507571C53.4788 -0.507571 52.0823 -0.507572 50.7841 0.207545H50.7907Z" fill="#CFDFDA"/>
<path d="M50.7906 0.206993C52.0822 -0.50144 53.4853 -0.508123 54.908 -0.508123C66.7359 -0.494757 78.5638 -0.46134 90.3917 -0.54154C92.1685 -0.554907 93.7879 0.08001 95.5123 0.16021C95.6696 0.233727 95.7483 0.354027 95.7286 0.534477C95.6106 1.66396 95.827 2.54616 97.1711 2.61299L97.112 2.59963C97.0793 3.05409 97.2956 3.31474 97.7218 3.42168C107.858 17.2562 119.712 29.2461 134.071 38.5359C152.816 50.6662 173.377 57.5166 195.302 60.3704C199.629 60.9318 203.983 61.2592 208.316 61.7137C209.038 61.7872 209.89 61.5667 210.329 62.4556C210.303 63.6786 210.257 64.9017 210.257 66.118C210.257 142.214 210.257 218.304 210.251 294.401C210.251 298.518 210.198 302.635 210.165 306.745C209.969 306.758 209.785 306.818 209.621 306.925C208.513 306.471 207.438 305.923 206.297 305.582C184.608 299.032 162.467 294.828 139.893 293.645C119.725 292.589 99.6166 293.772 79.6587 297.275C74.3152 298.21 69.07 299.807 63.6019 300.008C42.3065 262.18 -6.15241 251.086 -41.2754 276.075C-43.2686 277.499 -43.9833 276.957 -45.2814 275.24C-56.8274 259.975 -70.8386 247.684 -87.8657 239.116C-87.8526 238.916 -87.9182 238.749 -88.069 238.615C-88.0427 237.505 -87.9903 236.396 -87.9903 235.287C-87.9706 203.039 -87.951 170.799 -87.9313 138.552C-61.4628 136.48 -36.5417 129.469 -14.1382 114.452C-11.7844 112.875 -9.45033 111.271 -7.1031 109.673C-4.82801 109.687 -2.55289 109.693 -0.277794 109.707C10.5535 109.787 21.3782 109.867 32.2095 109.954C31.7768 111.084 31.3703 112.233 30.8982 113.349C26.7086 123.381 25.0564 133.88 26.3808 144.641C28.3477 160.66 35.6648 173.88 48.1221 183.905C60.7958 194.104 75.3052 198.034 91.3358 196.096C104.357 194.518 115.496 188.804 124.754 179.501C127.698 176.547 131.088 173.66 132.248 169.235C146.974 169.222 161.693 169.128 176.419 169.255C179.271 169.282 179.802 168.079 179.461 165.686C177.475 151.611 163.437 142.448 148.685 147.862C147.249 148.39 145.722 148.958 144.771 147.688C143.624 146.158 141.847 145.523 140.726 144.072C141.663 143.504 142.011 142.656 142.037 141.566C142.162 136.453 142.162 131.334 141.04 126.335C135.795 102.916 122.073 87.3577 99.3872 80.4805C90.6343 77.8272 81.6388 77.2992 72.6498 79.6652C70.8009 77.6869 69.1028 75.5215 67.0638 73.7638C58.2322 66.1581 48.1287 61.9409 36.4057 62.2484C34.9043 62.2885 33.3438 62.5157 31.9735 61.5734C40.3723 44.4039 45.9781 26.2787 49.6497 7.50519C50.5349 6.85691 50.2923 5.95466 50.1743 5.07914L50.0825 4.85191C51.6757 3.62218 50.7971 1.93129 50.8823 0.414177L50.7775 0.20031L50.7906 0.206993Z" fill="#F9D9BD"/>
<path d="M-11.5549 730.468C-16.0002 725.616 -19.7833 720.209 -24.2941 715.397C-40.4034 698.194 -59.4631 685.69 -81.283 677.429C-83.5057 676.587 -85.9643 676.407 -87.9772 674.963C-87.9772 625.5 -87.9772 576.03 -87.9641 526.566C-87.9641 525.016 -87.8723 523.458 -87.8264 521.908C-86.5151 522.209 -85.4726 522.957 -84.4695 523.853C-73.0546 533.991 -60.4924 542.473 -47.2877 549.945C-44.3111 551.629 -41.5901 553.961 -38.1086 554.683C-37.9054 554.75 -37.7021 554.817 -37.4989 554.877C-35.1779 557.029 -32.1226 557.61 -29.3623 558.833C-10.4075 567.221 9.34055 571.926 30.0656 572.073C36.8974 571.959 43.7162 572.207 50.5677 571.605C58.0158 570.944 65.3656 569.66 72.7941 568.945C72.6564 569.707 72.6826 570.556 72.3614 571.224C69.9552 576.17 69.0307 581.503 68.1653 586.87C67.3326 592.036 67.8964 592.778 72.9252 592.778C103.95 592.778 134.976 592.778 166.001 592.778C171.908 592.778 172.131 592.758 171.626 587.024C170.656 575.99 166.67 566.145 159.307 557.918C156.186 554.429 152.659 551.321 149.315 548.04C149.774 547.779 150.2 547.425 150.692 547.271C166.401 542.158 182.11 537.052 198.01 532.548C202.147 531.378 206.586 531.011 210.303 528.471C210.369 528.685 210.434 528.899 210.5 529.113C210.434 530.556 210.316 532 210.316 533.443C210.303 588.895 210.27 644.347 210.388 699.798C210.395 703.187 209.365 704.523 206.199 704.991C181.146 708.68 156.35 713.807 131.534 718.879C114.29 722.408 96.9482 725.489 79.5669 728.236C68.8471 729.927 58.0355 731.09 47.178 731.892C33.534 732.901 19.903 732.413 6.26557 732.313C0.325401 732.266 -5.61475 731.123 -11.5484 730.475L-11.5549 730.468ZM32.8193 628.881C43.1851 628.881 53.5574 628.881 63.9232 628.881C68.3947 628.881 68.4603 628.875 68.0603 624.27C67.1555 613.697 61.7399 605.583 53.6295 599.628C44.3259 592.811 33.8224 591.241 22.6961 594.696C8.64557 599.067 -0.402351 611.044 -2.08081 625.433C-2.36929 627.886 -1.71365 628.988 1.06629 628.942C11.6484 628.774 22.2371 628.875 32.8259 628.881H32.8193ZM149.885 684.968C158.73 684.968 167.574 684.848 176.419 685.035C179.245 685.095 179.861 683.899 179.507 681.493C178.766 676.514 177.278 671.909 174.38 667.671C164.893 653.81 145.8 650.382 132.583 660.547C126.072 665.553 122.04 672.296 120.624 680.55C119.968 684.373 120.44 684.955 124.007 684.961C132.635 684.968 141.257 684.961 149.885 684.961V684.968Z" fill="#37897F"/>
<path d="M313.312 323.948C313.351 323.754 313.299 323.587 313.161 323.447C313.187 323.112 313.233 322.785 313.233 322.451C313.226 261.138 313.213 199.825 313.2 138.512C321.363 137.122 329.598 136.226 337.676 134.261C370.445 126.282 397.326 109.145 417.415 81.3428C417.54 81.1691 417.724 81.0287 417.874 80.875C419.428 82.0446 418.753 83.7488 418.759 85.2058C418.799 135.458 418.792 185.71 418.792 235.962C409.43 235.668 400.723 237.666 393.865 244.543C391.15 247.263 389.19 247.965 385.295 246.568C373.979 242.498 359.259 249.188 356.466 264.165C355.726 268.122 355.588 268.109 359.43 268.115C377.985 268.129 396.533 268.115 415.088 268.155C416.327 268.155 417.73 267.601 418.786 268.817C418.805 285.753 418.819 302.688 418.838 319.624C418.825 319.844 418.818 320.065 418.805 320.285C417.527 321.462 416.157 322.551 414.983 323.828C408.977 330.364 403.083 337.007 396.494 342.955C388.423 342.949 380.352 342.942 372.281 342.935C371.94 342.006 371.559 341.091 371.258 340.148C365.049 320.84 346.809 310.835 327.526 316.095C322.143 317.565 317.75 320.78 313.318 323.968L313.312 323.948Z" fill="#F9D9BD"/>
<path d="M396.494 342.942C403.083 336.994 408.977 330.35 414.983 323.814C416.157 322.538 417.527 321.448 418.805 320.272C418.805 367.516 418.792 414.761 418.805 461.999C418.805 463.068 418.451 464.251 419.395 465.153C419.218 465.407 419.035 465.655 418.858 465.909C417.986 465.922 417.088 465.788 416.248 465.969C403.522 468.762 391.511 473.434 380.404 480.391C367.934 488.204 357.522 498.283 348.651 510.119C347.169 512.097 346.671 514.897 344.147 516.04C333.86 515.546 323.566 515.051 313.279 514.556C313.272 479.817 313.266 445.077 313.259 410.337C313.259 409.668 313.338 409.007 313.377 408.338C320.661 404.883 327.428 400.525 334.102 396.008C341.97 390.681 349.621 385.074 357.024 379.052C362.977 374.213 368.668 369.087 374.497 364.115C382.24 357.505 389.563 350.434 396.487 342.935L396.494 342.942Z" fill="#98D870"/>
<path d="M285.126 516.548C285.093 528.572 285.034 540.595 285.034 552.618C285.027 599.488 285.034 646.359 285.034 693.229C285.034 697.653 285.034 697.56 280.687 697.7C268.406 698.101 256.126 698.562 243.925 700.273C242.849 700.427 241.741 700.3 240.653 700.38C239.106 700.5 238.424 699.825 238.516 698.255C238.561 697.479 238.516 696.697 238.516 695.915C238.516 639.247 238.516 582.58 238.509 525.912C238.509 524.802 238.43 523.693 238.391 522.577C238.45 522.349 238.509 522.115 238.561 521.888C240.168 522.663 241.768 522.002 243.315 521.728C255.398 519.602 267.469 517.39 279.736 516.595C284.549 516.288 284.549 516.268 284.424 511.295C284.444 498.864 284.483 486.433 284.476 474.002C284.463 456.358 284.411 438.707 284.378 421.063C284.398 390.607 284.411 360.145 284.431 329.689L284.45 329.562C284.634 329.562 284.811 329.542 284.988 329.502C285.014 330.611 285.073 331.727 285.073 332.837C285.093 394.076 285.106 455.309 285.119 516.548H285.126Z" fill="#37897F"/>
<path d="M314.544 30.2754C313.659 29.5001 313.908 28.4375 313.902 27.4684C313.889 19.3414 313.987 11.2212 313.849 3.09427C313.804 0.307318 314.754 -0.548148 317.456 -0.541465C350.323 -0.467948 383.197 -0.501365 416.065 -0.487999C417.016 -0.487999 418.058 -0.768698 418.819 0.153601C418.786 20.1969 418.746 40.2336 418.714 60.2769C409.161 78.6828 396.068 93.9074 379.126 105.556C359.817 118.836 338.266 125.606 315.22 127.865C313.987 126.856 313.869 125.506 313.876 123.996C313.922 106.546 313.922 89.0954 313.935 71.6452C320.924 71.6452 327.913 71.6452 334.902 71.6452C351.72 71.6452 368.537 71.5984 385.354 71.692C387.852 71.7054 388.829 71.1239 388.751 68.3637C388.646 64.6678 388.357 61.0454 387.216 57.5434C382.587 43.348 373.926 32.815 360.282 26.7934C350.008 22.2621 339.505 21.7207 328.667 24.3473C323.605 25.5703 319.311 28.4575 314.544 30.2821V30.2754Z" fill="#F9D9BD"/>
<path d="M108.573 1.09622C108.815 -0.628082 110.087 -0.501099 111.307 -0.501099C143.093 -0.501099 174.885 -0.481049 206.671 -0.527832C208.985 -0.527832 209.706 0.421201 209.7 2.6668C209.647 17.6976 209.549 32.7284 209.752 47.7526C209.805 51.7225 206.927 50.4927 205.143 51.3148C166.899 48.2271 134.11 33.9983 109.674 2.73364C109.268 2.21902 108.94 1.63757 108.579 1.08953L108.573 1.09622Z" fill="#F8D9BE"/>
<path d="M314.544 30.2755C319.311 28.451 323.612 25.5704 328.667 24.3407C339.505 21.7142 350.008 22.2555 360.282 26.7868C373.926 32.8085 382.587 43.3414 387.216 57.5368C388.357 61.0389 388.646 64.6613 388.751 68.3571C388.829 71.1107 387.852 71.6988 385.354 71.6854C368.537 71.5919 351.72 71.6387 334.902 71.6387C327.913 71.6387 320.924 71.6387 313.935 71.6387C313.79 70.7364 314.151 69.7272 313.384 68.9653C313.384 68.3037 313.384 67.642 313.384 66.9804C314.243 65.9044 313.869 64.6345 313.869 63.4516C313.902 54.0214 313.908 44.5979 313.869 35.1677C313.863 33.4835 314.046 31.8661 314.551 30.2755H314.544Z" fill="#FDFDFD"/>
<path d="M396.494 342.942C389.57 350.44 382.247 357.511 374.503 364.121C368.675 369.094 362.984 374.22 357.03 379.058C349.628 385.08 341.977 390.694 334.109 396.014C327.434 400.525 320.668 404.89 313.384 408.345C313.358 389.231 313.325 370.116 313.292 351.009C317.855 350.975 322.425 350.922 326.989 350.922C341.236 350.908 355.483 350.841 369.724 350.982C372.477 351.009 373.199 349.973 372.851 347.5C372.641 345.976 372.464 344.446 372.268 342.915C380.339 342.922 388.41 342.928 396.481 342.935L396.494 342.942Z" fill="#80C252"/>
<path d="M209.634 306.932C209.798 306.818 209.982 306.758 210.185 306.745C210.237 307.961 210.342 309.184 210.342 310.401C210.375 339.433 210.401 368.465 210.428 397.498C210.415 407.403 210.395 417.307 210.382 427.212C210.329 427.66 210.283 428.107 210.231 428.549C208.552 428.087 206.894 427.412 205.182 427.192C190.994 425.367 177.331 421.264 163.654 417.267C155.609 414.921 147.643 412.288 139.703 409.615C134.995 408.031 130.071 407.015 125.738 404.388C128.105 400.9 131.947 399.236 135.008 396.602C140.496 391.87 147.171 389.184 153.812 387.306C161.064 385.254 168.781 384.332 176.439 385.04C183.12 385.655 189.604 386.938 195.971 389.498C200.599 391.356 204.71 394.25 209.641 395.954V306.932H209.634Z" fill="#4AB96F"/>
<path d="M372.281 342.922C372.471 344.452 372.648 345.976 372.864 347.507C373.212 349.979 372.491 351.015 369.737 350.989C355.49 350.848 341.242 350.915 327.002 350.929C322.438 350.929 317.868 350.982 313.305 351.015C313.312 342 313.318 332.977 313.325 323.955C317.764 320.767 322.15 317.552 327.533 316.082C346.815 310.822 365.055 320.827 371.264 340.135C371.566 341.077 371.946 341.993 372.287 342.922H372.281Z" fill="#37897F"/>
<path d="M238.568 521.888C238.509 522.122 238.45 522.349 238.397 522.583C237.388 521.3 237.879 519.789 237.879 518.393C237.853 345.207 237.853 172.022 237.853 -1.16296C238.05 -1.1897 238.253 -1.19638 238.45 -1.17633C238.535 -0.93573 238.627 -0.69513 238.712 -0.45453C238.712 -0.0201138 238.699 0.420986 238.692 0.855403C238.647 1.96484 238.568 3.07427 238.568 4.1837C238.568 103.418 238.568 202.645 238.568 301.879C238.568 306.665 238.614 311.443 238.64 316.229C238.614 352.72 238.588 389.211 238.568 425.702C238.568 427.252 238.653 428.809 238.692 430.36C238.692 430.848 238.692 431.342 238.692 431.83C238.692 432.672 238.692 433.514 238.692 434.356V437.17C238.692 437.798 238.692 438.42 238.692 439.048C238.679 439.155 238.653 439.269 238.653 439.376C238.666 465.367 238.679 491.359 238.692 517.35C238.692 517.972 238.692 518.586 238.692 519.208C238.647 520.097 238.601 520.986 238.561 521.875L238.568 521.888Z" fill="#1C4467"/>
<path d="M285.125 516.548C285.112 455.309 285.099 394.076 285.08 332.836C285.08 331.727 285.027 330.611 284.994 329.501C284.942 327.122 284.889 324.743 284.837 322.364C284.857 321.027 284.902 319.697 284.902 318.36C284.902 240.733 284.902 163.113 284.902 85.4863C284.902 84.1496 284.863 82.8196 284.843 81.483C284.909 81.0486 285.034 80.6075 285.034 80.173C285.04 53.7338 285.047 27.2878 285.034 0.848567C285.034 0.41415 284.902 -0.0269498 284.837 -0.461366C284.863 -0.6886 284.889 -0.915833 284.916 -1.14307L285.08 -1.0896C285.27 -1.13638 285.46 -1.14975 285.656 -1.12302C285.676 23.9194 285.709 48.9552 285.709 73.9977C285.709 220.349 285.709 366.701 285.689 513.053C285.689 514.222 286.142 515.519 285.132 516.541L285.125 516.548Z" fill="#132E42"/>
<path d="M210.428 397.498C210.401 368.466 210.375 339.433 210.342 310.401C210.342 309.184 210.238 307.961 210.185 306.745C210.211 302.628 210.27 298.518 210.27 294.401C210.27 218.304 210.27 142.215 210.277 66.1183C210.277 64.8952 210.323 63.6722 210.349 62.4558C211.45 63.2979 210.946 64.5143 210.946 65.5502C210.972 175.257 210.965 284.964 210.946 394.671C210.946 395.627 211.313 396.696 210.428 397.498Z" fill="#183218"/>
<path d="M313.207 138.519C313.22 199.832 313.233 261.145 313.24 322.458C313.24 322.792 313.194 323.119 313.168 323.453C312.171 322.424 312.63 321.127 312.63 319.958C312.604 260.637 312.61 201.322 312.63 142.001C312.63 140.831 312.184 139.528 313.207 138.519Z" fill="#132E42"/>
<path d="M210.231 428.556C210.283 428.108 210.329 427.66 210.382 427.212C211.352 428.108 210.959 429.291 210.959 430.353C210.978 462.32 210.978 494.293 210.959 526.259C210.959 527.222 211.293 528.278 210.487 529.113C210.421 528.899 210.355 528.685 210.296 528.471C210.27 495.168 210.251 461.865 210.224 428.556H210.231Z" fill="#183218"/>
<path d="M313.377 68.9722C314.151 69.7408 313.791 70.7433 313.928 71.6455C313.915 89.0957 313.922 106.546 313.869 123.996C313.869 125.506 313.987 126.857 315.213 127.866C312.84 128.968 313.279 127.124 313.279 125.887C313.259 116.457 313.246 107.02 313.266 97.5902C313.286 88.0531 313.338 78.516 313.371 68.9722H313.377Z" fill="#CFDFDA"/>
<path d="M210.375 -1.12946C210.546 -1.18293 210.716 -1.18961 210.887 -1.14951C210.919 15.7326 210.952 32.6147 210.978 49.4968C210.978 50.252 211.136 51.0874 210.277 51.5486C210.31 33.9915 210.342 16.4277 210.375 -1.12946Z" fill="#183218"/>
<path d="M97.171 2.61318C95.827 2.54635 95.604 1.66415 95.7286 0.534668C96.2138 1.22973 96.6924 1.91812 97.171 2.61318Z" fill="#CFDFDA"/>
<path d="M97.7217 3.4219C97.3021 3.31497 97.0858 3.05432 97.112 2.59985C97.3152 2.87387 97.5185 3.14789 97.7217 3.4219Z" fill="#CFDFDA"/>
<path d="M419.396 522.731C430.253 531.646 437.288 542.854 439.144 557.136C440.134 564.769 440.114 564.775 432.607 564.775C401.916 564.775 371.219 564.775 340.528 564.775C335.656 564.775 335.82 564.775 336.096 559.897C336.633 550.4 339.957 541.972 345.235 534.279C349.917 527.449 355.909 522.076 363.108 518.112C371.383 513.748 380.142 511.596 389.485 511.897C399.425 512.211 408.427 515.452 416.819 520.699C417.232 520.953 417.645 521.213 418.058 521.467C418.248 521.594 418.445 521.721 418.635 521.848C418.884 522.142 419.14 522.443 419.389 522.737L419.396 522.731Z" fill="#1B4468"/>
<path d="M416.825 520.692C408.433 515.439 399.431 512.204 389.492 511.89C380.149 511.596 371.389 513.748 363.115 518.105C356.788 517.417 350.467 516.728 344.147 516.047C346.678 514.897 347.176 512.104 348.658 510.125C357.529 498.289 367.94 488.211 380.411 480.398C391.517 473.44 403.529 468.769 416.255 465.975C417.088 465.795 417.993 465.928 418.865 465.908C418.858 473.347 418.865 480.779 418.838 488.217C418.792 499.425 418.714 510.633 418.648 521.841C418.458 521.714 418.261 521.587 418.071 521.46C417.888 520.825 417.409 520.672 416.832 520.692H416.825Z" fill="#80C252"/>
<path d="M-87.8526 239.116C-70.8254 247.684 -56.8142 259.982 -45.2683 275.24C-43.9635 276.964 -43.2554 277.499 -41.2623 276.075C-6.13924 251.086 42.3197 262.18 63.6151 300.008C63.2611 300.255 62.9398 300.636 62.553 300.723C54.7901 302.427 47.1583 304.626 39.5004 306.745C22.5716 311.43 5.95747 317.158 -10.8009 322.404C-35.9646 330.277 -61.2988 336.994 -87.9312 336.252C-87.9771 336.025 -88.023 335.797 -88.0624 335.577C-88.0296 306.872 -88.0034 278.167 -87.964 249.462C-87.964 246.013 -87.8919 242.565 -87.8526 239.116Z" fill="#37897F"/>
<path d="M-87.2561 61.7206C-87.2757 41.9179 -87.2626 22.1219 -87.3479 2.31916C-87.3544 0.133714 -86.666 -0.541302 -84.5351 -0.534619C-42.8425 -0.454419 -1.14987 -0.441052 40.5493 -0.407636C40.451 0.474564 40.3526 1.35008 40.2542 2.2256C40.1887 2.47956 40.1166 2.73353 40.051 2.9875L40.0772 2.92066C38.9102 4.72516 38.2938 6.6366 39.0413 8.79531C35.2385 29.273 28.5378 48.628 17.6541 66.3722C16.5395 65.8509 17.0902 66.7465 17.0378 67.1274L17.0968 67.1007C15.9887 66.8601 14.9266 66.8735 13.9956 67.6487C12.5925 68.8183 11.4779 68.1032 10.6911 66.9203C8.51434 63.6655 5.5377 61.2595 2.65285 58.7332C-8.60461 48.8753 -21.4881 43.1744 -36.4565 42.9271C-42.4229 42.8268 -48.3631 42.6999 -54.2901 44.1769C-63.8101 46.5495 -72.5827 50.2721 -80.2406 56.6613C-82.4436 58.4993 -84.1155 61.2127 -87.2626 61.7273L-87.2561 61.7206Z" fill="#F9D9BD"/>
<path d="M-87.256 61.7207C-84.1155 61.1994 -82.437 58.4859 -80.234 56.6547C-72.5826 50.2654 -63.8035 46.5495 -54.2835 44.1702C-48.3564 42.6932 -42.4163 42.8202 -36.4499 42.9205C-21.4815 43.1677 -8.60456 48.8686 2.65946 58.7265C5.54431 61.2528 8.52095 63.6588 10.6977 66.9136C11.491 68.0966 12.5991 68.8117 14.0022 67.6421C14.9332 66.8668 15.9953 66.8535 17.1034 67.0941C9.41264 80.5142 -0.65155 91.789 -12.6958 101.259C-17.187 104.795 -21.8027 108.15 -26.9561 110.649C-27.6314 109.373 -28.8313 109.74 -29.8606 109.74C-48.999 109.734 -68.1373 109.754 -87.2822 109.76C-87.4789 108.638 -86.9478 107.388 -87.8264 106.379C-87.8264 94.3554 -87.8264 82.3388 -87.8264 70.3154C-87.1577 69.6404 -87.1708 68.9654 -87.8264 68.2971C-87.8264 67.4149 -87.8264 66.526 -87.8264 65.6438C-86.8888 64.4542 -87.492 63.0172 -87.2429 61.7207H-87.256Z" fill="#FDFDFD"/>
<path d="M32.2161 109.961C21.3848 109.881 10.56 109.794 -0.271246 109.714C-2.54634 109.694 -4.82146 109.687 -7.09656 109.68C1.88581 102.061 10.383 93.9677 17.5361 84.4773C22.9846 77.2526 27.5741 69.4799 31.9931 61.5869C33.3634 62.5359 34.9239 62.302 36.4253 62.2619C48.1483 61.9545 58.2518 66.1717 67.0834 73.7773C69.1225 75.535 70.814 77.7004 72.6695 79.6787C73.0432 80.3403 73.3645 81.0354 73.8038 81.6503C78.9637 88.8148 81.7109 96.8749 82.5763 105.69C82.8648 108.611 82.1895 109.821 78.9572 109.76C67.7325 109.56 56.5078 109.64 45.2831 109.694C40.9296 109.714 36.5696 109.359 32.2292 109.968L32.2161 109.961Z" fill="#FDFDFD"/>
<path d="M39.0413 8.7953C38.2938 6.63659 38.9102 4.73184 40.0772 2.92065C39.7297 4.87887 39.3888 6.83709 39.0413 8.7953Z" fill="#CFDFDA"/>
<path d="M50.8956 0.420898C50.8103 1.93133 51.6889 3.6289 50.0957 4.85863C50.1875 3.3482 50.1154 1.80435 50.8956 0.420898Z" fill="#CFDFDA"/>
<path d="M50.1874 5.08594C50.312 5.96145 50.5546 6.8637 49.6629 7.51199C49.6301 6.65652 49.5776 5.80105 50.1874 5.08594Z" fill="#CFDFDA"/>
<path d="M17.0379 67.1273C17.0904 66.7464 16.5396 65.8575 17.6542 66.3721C17.451 66.6261 17.2412 66.8734 17.0379 67.1273Z" fill="#FDFDFD"/>
<path d="M40.051 2.99033C40.1172 2.73542 40.1901 2.4805 40.2563 2.22559C40.1901 2.4805 40.1172 2.73542 40.051 2.99033Z" fill="#CFDFDA"/>
<path d="M238.699 0.868954C238.699 0.427854 238.712 -0.00656247 238.719 -0.447663C252.914 -0.467713 267.108 -0.481079 281.303 -0.507812C282.418 -0.507812 283.48 -0.427613 284.437 0.220671C284.411 12.2239 284.391 24.2272 284.365 36.2305C283.506 36.7718 282.523 36.7919 281.559 36.9723C274.275 38.3491 267.652 41.0224 262.191 46.4359C256.316 52.2571 252.953 59.1343 252.14 67.4417C251.727 71.6588 251.53 71.6321 255.595 71.6388C264.977 71.6588 274.36 71.6922 283.749 71.719C283.749 156.049 283.749 240.38 283.775 324.717C283.775 326.1 283.244 327.624 284.365 328.867C284.398 329.101 284.424 329.335 284.457 329.569L284.437 329.696C274.255 326.909 264.04 324.255 253.91 321.275C248.934 319.811 243.826 318.661 239.132 316.302C239.132 316.189 239.145 316.082 239.145 315.968C239.151 211.902 239.158 107.836 239.151 3.76952C239.151 2.79375 239.407 1.75115 238.699 0.882321V0.868954Z" fill="#F9D9BD"/>
<path d="M284.365 36.2238C284.391 24.2206 284.411 12.2173 284.437 0.214018C284.489 -0.0533156 284.535 -0.313965 284.588 -0.581299L284.837 -0.454316C284.909 -0.0198989 285.034 0.421201 285.034 0.855618C285.04 27.2949 285.04 53.7408 285.034 80.1801C285.034 80.6145 284.909 81.0556 284.843 81.49C283.971 78.2687 284.824 74.9671 284.391 71.7257C284.384 59.8895 284.378 48.06 284.371 36.2238H284.365Z" fill="#97D672"/>
<path d="M-87.8003 398.394C-87.8527 384.66 -87.9248 370.925 -87.9576 357.191C-87.9773 350.214 -87.9445 343.23 -87.9314 336.252C-61.2924 336.994 -35.9648 330.271 -10.801 322.404C5.95734 317.165 22.5714 311.43 39.5002 306.745C47.1582 304.627 54.79 302.428 62.5528 300.724C62.9397 300.637 63.2609 300.256 63.615 300.008C69.0831 299.808 74.3282 298.217 79.6718 297.275C99.6297 293.773 119.738 292.59 139.906 293.646C162.48 294.829 184.621 299.039 206.31 305.582C207.451 305.923 208.526 306.471 209.634 306.926C209.634 336.526 209.634 366.12 209.634 395.948C204.704 394.243 200.586 391.35 195.964 389.492C189.604 386.932 183.113 385.649 176.432 385.034C168.774 384.325 161.057 385.248 153.806 387.299C147.171 389.177 140.496 391.871 135.002 396.596C131.94 399.229 128.098 400.893 125.731 404.382C123.725 403.894 121.692 403.513 119.725 402.898C112.257 400.566 104.895 397.812 97.3415 395.834C79.8029 391.243 62.2512 386.725 44.1357 384.833C28.9902 383.249 13.9169 381.973 -1.35971 382.835C-11.7845 383.423 -22.1437 384.292 -32.4898 385.629C-45.7667 387.34 -58.7485 390.467 -71.6845 393.829C-76.9296 395.192 -81.9716 397.311 -87.302 398.4C-87.4659 398.387 -87.6298 398.38 -87.7937 398.387L-87.8003 398.394ZM92.9683 360.225C103.236 360.225 113.497 360.225 123.764 360.225C128.609 360.225 128.576 360.225 128.373 355.293C127.947 344.854 122.754 336.941 114.952 330.946C104.488 322.906 92.6208 321.215 80.3864 325.88C66.7358 331.079 59.1107 342.635 57.6355 356.884C57.3601 359.53 58.2387 360.319 60.8744 360.285C71.5745 360.138 82.2747 360.225 92.9749 360.225H92.9683Z" fill="#80C252"/>
<path d="M32.2162 109.961C36.5566 109.353 40.9166 109.707 45.2701 109.687C56.4948 109.633 67.7195 109.546 78.9442 109.754C82.1765 109.814 82.8518 108.604 82.5633 105.684C81.6979 96.8749 78.9573 88.8148 73.7908 81.6436C73.3515 81.0354 73.0302 80.3336 72.6565 79.672C81.6454 77.3061 90.6409 77.8274 99.3938 80.4874C122.079 87.3712 135.808 102.93 141.047 126.342C142.168 131.341 142.168 136.46 142.044 141.573C142.017 142.662 141.663 143.518 140.732 144.079C138.162 141.987 135.382 140.223 132.307 139.067C112.795 131.715 92.6734 143.805 89.5132 164.737C88.851 169.108 88.9166 169.169 93.3553 169.175C106.324 169.189 119.286 169.215 132.255 169.242C131.101 173.673 127.705 176.554 124.761 179.508C115.503 188.811 104.364 194.525 91.3425 196.102C75.3119 198.047 60.8024 194.111 48.1288 183.912C35.6715 173.887 28.361 160.667 26.3875 144.647C25.0631 133.881 26.7153 123.381 30.9049 113.356C31.3704 112.24 31.7769 111.09 32.2162 109.961Z" fill="#F49C48"/>
<path d="M132.255 169.242C119.286 169.222 106.324 169.195 93.3551 169.175C88.9163 169.175 88.8508 169.108 89.513 164.737C92.6798 143.805 112.795 131.708 132.307 139.067C135.382 140.223 138.162 141.994 140.732 144.079C141.853 145.529 143.63 146.164 144.777 147.695C145.728 148.965 147.256 148.397 148.692 147.869C163.437 142.448 177.475 151.618 179.468 165.693C179.809 168.086 179.271 169.282 176.426 169.262C161.706 169.135 146.98 169.229 132.255 169.242Z" fill="#FDFDFD"/>
<path d="M-87.3084 398.407C-81.978 397.317 -76.936 395.199 -71.6909 393.835C-58.7549 390.467 -45.7666 387.346 -32.4963 385.635C-22.1502 384.298 -11.791 383.429 -1.36617 382.841C13.9104 381.979 28.9838 383.256 44.1292 384.84C62.2448 386.731 79.7964 391.249 97.335 395.84C104.888 397.819 112.251 400.565 119.719 402.905C121.686 403.519 123.725 403.9 125.725 404.388C130.058 407.015 134.982 408.031 139.69 409.615C147.636 412.288 155.602 414.921 163.641 417.267C177.317 421.264 190.988 425.367 205.169 427.192C206.881 427.412 208.533 428.087 210.218 428.549C210.244 461.858 210.264 495.161 210.29 528.464C206.572 531.004 202.134 531.365 197.997 532.541C182.097 537.039 166.388 542.152 150.678 547.265C150.187 547.425 149.761 547.773 149.302 548.033C147.99 548.093 147.066 547.204 146.05 546.603C125.252 534.359 98.9741 538.222 82.2879 555.846C78.531 559.809 76.0134 564.628 72.7876 568.939C65.3591 569.647 58.0027 570.937 50.5611 571.599C43.7162 572.207 36.8909 571.96 30.059 572.066C30.4787 568.558 31.2195 565.049 31.2589 561.534C31.4162 545.948 27.6069 531.479 18.6376 518.693C9.47825 505.627 -2.71021 496.765 -17.7704 491.98C-23.4614 490.169 -23.5074 490.062 -24.7465 496.023C-27.9526 511.375 -30.9096 526.787 -34.3518 542.085C-35.309 546.349 -35.1648 550.954 -37.5054 554.877C-37.7087 554.817 -37.9119 554.75 -38.1152 554.683C-39.2298 550.085 -40.3706 545.494 -41.4458 540.889C-43.4456 532.327 -45.2355 523.706 -47.4385 515.205C-49.3464 507.84 -51.1167 500.448 -52.782 493.029C-53.2082 491.131 -54.4605 491.138 -56.0734 491.633C-66.2818 494.76 -75.3887 499.907 -83.4139 507.038C-84.3252 507.853 -85.1382 508.749 -86.4692 508.749C-87.8723 507.358 -86.5741 505.835 -86.5937 504.398C-87.092 469.07 -85.8266 433.735 -87.3149 398.413L-87.3084 398.407ZM-15.4298 464.512C-5.49671 464.512 4.42979 464.512 14.3628 464.512C19.9424 464.512 20.244 464.157 19.5294 458.49C19.5031 458.269 19.4834 458.049 19.431 457.835C15.661 442.817 6.91468 432.752 -8.2701 429.364C-20.6028 426.617 -31.3358 430.186 -40.2591 439.048C-46.0288 444.776 -49.3792 451.847 -50.225 460.167C-50.6249 464.131 -50.6577 464.505 -46.8615 464.505C-36.3843 464.518 -25.907 464.505 -15.4363 464.505L-15.4298 464.512Z" fill="#98D870"/>
<path d="M72.7875 568.939C76.0198 564.622 78.5309 559.81 82.2878 555.846C98.9806 538.222 125.252 534.359 146.05 546.603C147.072 547.205 147.997 548.094 149.302 548.034C152.645 551.315 156.173 554.423 159.294 557.912C166.657 566.139 170.643 575.983 171.613 587.017C172.118 592.752 171.895 592.772 165.988 592.772C134.962 592.772 103.937 592.772 72.912 592.772C67.8832 592.772 67.3194 592.03 68.152 586.864C69.0175 581.497 69.942 576.157 72.3482 571.218C72.676 570.55 72.6432 569.708 72.7809 568.939H72.7875Z" fill="#1C4467"/>
<path d="M-37.4989 554.877C-35.1582 550.954 -35.309 546.356 -34.3452 542.085C-30.9031 526.787 -27.9395 511.375 -24.74 496.023C-23.4943 490.062 -23.4549 490.169 -17.7639 491.98C-2.70367 496.765 9.48479 505.627 18.6442 518.693C27.6134 531.485 31.4228 545.948 31.2654 561.534C31.2326 565.049 30.4852 568.558 30.0656 572.066C9.34054 571.919 -10.4075 567.214 -29.3623 558.827C-32.116 557.61 -35.1779 557.022 -37.4989 554.87V554.877Z" fill="#4AB96F"/>
<path d="M32.8192 628.882C22.2305 628.882 11.6484 628.781 1.05965 628.948C-1.72029 628.988 -2.36938 627.892 -2.08745 625.44C-0.408992 611.05 8.63893 599.074 22.6894 594.703C33.8158 591.241 44.3258 592.818 53.6229 599.635C61.7398 605.583 67.1489 613.704 68.0537 624.277C68.4471 628.882 68.3881 628.888 63.9166 628.888C53.5508 628.888 43.1784 628.888 32.8126 628.888L32.8192 628.882Z" fill="#4AB96F"/>
<path d="M149.885 684.968C141.257 684.968 132.635 684.968 124.007 684.968C120.44 684.968 119.968 684.38 120.624 680.557C122.04 672.303 126.072 665.56 132.583 660.554C145.8 650.389 164.893 653.817 174.38 667.678C177.278 671.916 178.766 676.52 179.507 681.5C179.861 683.906 179.245 685.102 176.419 685.042C167.581 684.855 158.73 684.975 149.885 684.975V684.968Z" fill="#1B4468"/>
<path d="M419.31 268.75C419.14 268.777 418.963 268.797 418.786 268.817C417.73 267.601 416.327 268.155 415.088 268.155C396.533 268.115 377.985 268.122 359.43 268.115C355.588 268.115 355.732 268.128 356.467 264.165C359.26 249.188 373.979 242.505 385.295 246.568C389.183 247.965 391.15 247.263 393.865 244.543C400.723 237.666 409.43 235.661 418.792 235.962C418.969 235.982 419.146 236.008 419.323 236.055C419.323 246.956 419.317 257.85 419.31 268.75Z" fill="#FDFDFD"/>
<path d="M239.132 316.289C243.826 318.648 248.934 319.797 253.91 321.261C264.033 324.242 274.255 326.895 284.437 329.682C284.417 360.145 284.404 390.601 284.385 421.063C284.168 421.277 283.952 421.491 283.736 421.712C283.414 421.738 283.067 421.712 282.765 421.799C269.174 425.902 255.451 429.237 241.145 429.09C240.017 429.077 239.302 429.524 238.699 430.373C238.653 428.823 238.575 427.265 238.575 425.715C238.594 389.224 238.62 352.733 238.64 316.242C238.804 316.255 238.968 316.275 239.132 316.295V316.289Z" fill="#80C252"/>
<path d="M238.699 430.373C239.302 429.524 240.017 429.076 241.145 429.09C255.451 429.237 269.174 425.895 282.765 421.798C283.073 421.705 283.414 421.738 283.736 421.711C283.736 450.309 283.736 478.914 283.768 507.512C283.768 508.782 283.264 510.212 284.431 511.295C284.555 516.274 284.555 516.287 279.743 516.595C267.476 517.383 255.405 519.596 243.321 521.728C241.774 522.002 240.174 522.663 238.568 521.888C238.614 520.999 238.66 520.11 238.699 519.221C239.276 518.6 239.276 517.985 238.699 517.363C238.686 491.372 238.673 465.38 238.66 439.389C238.66 439.282 238.686 439.168 238.699 439.061C239.276 438.44 239.276 437.812 238.699 437.183C238.699 436.248 238.699 435.305 238.699 434.37C239.329 433.528 239.322 432.685 238.699 431.843C238.699 431.355 238.699 430.861 238.699 430.373Z" fill="#98D870"/>
<path d="M284.431 511.295C283.264 510.212 283.768 508.782 283.768 507.512C283.736 478.914 283.736 450.309 283.736 421.711C283.952 421.498 284.168 421.277 284.385 421.063C284.417 438.707 284.47 456.358 284.483 474.002C284.49 486.433 284.45 498.864 284.431 511.295Z" fill="#97D672"/>
<path d="M284.457 329.562C284.424 329.328 284.398 329.094 284.365 328.86C284.791 326.715 283.998 324.476 284.843 322.364C284.896 324.743 284.948 327.123 285.001 329.502C284.824 329.542 284.64 329.562 284.463 329.562H284.457Z" fill="#97D672"/>
<path d="M239.132 316.289C238.968 316.262 238.804 316.249 238.64 316.235C238.614 311.457 238.568 306.672 238.568 301.886C238.568 202.652 238.568 103.425 238.568 4.1906C238.568 3.08117 238.653 1.97174 238.693 0.862305C239.401 1.73114 239.145 2.77374 239.145 3.7495C239.145 107.816 239.145 211.882 239.138 315.948C239.138 316.062 239.138 316.169 239.125 316.282L239.132 316.289Z" fill="#CFDFDA"/>
<path d="M238.706 431.844C239.33 432.686 239.336 433.528 238.706 434.37C238.706 433.528 238.706 432.686 238.706 431.844Z" fill="#80C252"/>
<path d="M238.706 517.363C239.277 517.985 239.284 518.606 238.706 519.221C238.706 518.6 238.706 517.985 238.706 517.363Z" fill="#80C252"/>
<path d="M238.706 437.184C239.277 437.812 239.277 438.433 238.706 439.062C238.706 438.433 238.706 437.812 238.706 437.184Z" fill="#80C252"/>
<path d="M284.844 322.371C284.004 324.482 284.791 326.721 284.365 328.867C283.237 327.624 283.775 326.1 283.768 324.716C283.742 240.386 283.742 156.056 283.742 71.7188L284.063 71.6987L284.385 71.7255C284.817 74.9669 283.965 78.2751 284.837 81.4898C284.857 82.8198 284.896 84.1565 284.896 85.4865C284.896 163.113 284.896 240.734 284.896 318.361C284.896 319.697 284.857 321.027 284.831 322.364L284.844 322.371Z" fill="#F8D9BE"/>
<path d="M284.391 71.7323L284.07 71.7055C284.07 71.7055 283.749 71.7189 283.749 71.7256C274.366 71.6988 264.984 71.6721 255.595 71.6454C251.53 71.6387 251.727 71.6654 252.14 67.4482C252.953 59.1408 256.316 52.2637 262.191 46.4425C267.653 41.029 274.281 38.3557 281.559 36.9789C282.523 36.7985 283.499 36.7784 284.365 36.2371C284.371 48.0732 284.378 59.9027 284.385 71.7389L284.391 71.7323Z" fill="#FDFDFD"/>
<path d="M92.9684 360.225C82.2682 360.225 71.5681 360.138 60.8679 360.285C58.2388 360.319 57.3536 359.53 57.629 356.884C59.1042 342.635 66.7294 331.079 80.38 325.88C92.6209 321.215 104.488 322.912 114.946 330.946C122.754 336.94 127.941 344.854 128.367 355.293C128.57 360.225 128.609 360.225 123.758 360.225C113.49 360.225 103.229 360.225 92.9619 360.225H92.9684Z" fill="#37897F"/>
<path d="M-15.4298 464.505C-25.9071 464.505 -36.3843 464.512 -46.855 464.505C-50.6512 464.505 -50.6184 464.131 -50.2185 460.168C-49.3793 451.847 -46.0224 444.776 -40.2527 439.048C-31.3293 430.186 -20.6029 426.617 -8.26362 429.364C6.92117 432.746 15.6741 442.818 19.4375 457.835C19.4899 458.049 19.5096 458.276 19.5358 458.49C20.2505 464.158 19.9423 464.512 14.3693 464.512C4.43624 464.512 -5.49026 464.512 -15.4233 464.512L-15.4298 464.505Z" fill="#80C252"/>
</g>
<defs>
<clipPath id="clip0_596_1630">
<rect width="360" height="800" fill="white"/>
</clipPath>
</defs>
</svg>
